<?xml version="1.0" encoding="utf-8"?>
<!-- Generator: Adobe Illustrator 26.0.0, SVG Export Plug-In . SVG Version: 6.00 Build 0)  -->
<svg version="1.1" id="Layer_1" xmlns="http://www.w3.org/2000/svg" xmlns:xlink="http://www.w3.org/1999/xlink" x="0px" y="0px"
	 viewBox="0 0 445.3 414.3" style="enable-background:new 0 0 445.3 414.3;" xml:space="preserve">
<style type="text/css">
	.st0{fill:none;}
	.st1{fill:#E03F7A;}
	.st2{fill:#FFFFFF;}
	.st3{fill:none;stroke:#FFFFFF;stroke-width:7;stroke-miterlimit:10;}
	.st4{fill:url(#SVGID_1_);}
	.st5{fill:#231F20;}
	.st6{fill:none;stroke:#66C7CA;stroke-width:7;stroke-miterlimit:10;}
</style>
<pattern  x="-460.2" y="-176.4" width="3.4" height="55.9" patternUnits="userSpaceOnUse" id="New_Pattern_rosa" viewBox="0 -55.9 3.4 55.9" style="overflow:visible;">
	<g>
		<rect x="0" y="-55.9" class="st0" width="3.4" height="55.9"/>
		<rect x="0" y="-55.9" class="st1" width="1.7" height="55.9"/>
		<rect x="1.7" y="-55.9" class="st0" width="1.7" height="55.9"/>
	</g>
</pattern>
<polyline class="st1" points="20.7,100.1 0,146.5 28,160.9 76,308.4 48.5,332.4 80,381.7 155.5,330.1 162.7,381.7 191,358.5 
	218.1,361.6 230.1,381.5 445.2,381.5 432.6,263.1 432.6,252.9 432.6,146.3 432.6,146.3 423.3,125.4 423.3,125.4 416.6,116.9 
	412.7,114.6 387.7,80.9 290.8,59.3 307.9,4.5 204.9,4.5 208.2,26.9 264.4,145.5 209.7,125.9 185.7,139.9 172.7,134.9 167,146.5 
	257.2,182.5 246.4,236.2 186.4,223.2 "/>
<polygon class="st2" points="223.8,376.5 182.2,372.5 133.9,302.2 121.5,269.2 174,234.6 175.9,224.3 205.4,229.6 201.2,252.6 
	158,281.1 160.7,288.2 199,344 226.7,346.7 "/>
<path class="st3" d="M139.8,275.1"/>
<polygon class="st2" points="156.7,414.3 139.4,296.4 155.2,294 167.1,375.2 184.3,353.3 196.9,363.2 "/>
<polygon class="st2" points="111.1,176 31.5,159.2 28.8,164.3 14.7,156.9 23,141 114.4,160.4 "/>
<pattern  id="SVGID_1_" xlink:href="#New_Pattern_rosa" patternTransform="matrix(0.7071 -0.7071 0.7071 0.7071 3049.239 -7145.0757)">
</pattern>
<polyline class="st4" points="194.6,139.6 210.6,125.6 258.9,142.9 202.6,23.6 201.7,4.5 5.3,4.5 44,59.3 26.6,93.4 189.1,225.1 
	246.6,227.9 255,183.4 173.6,146.6 "/>
<polygon class="st5" points="172.7,143.4 178.1,135.4 189,138.4 204.7,126.8 258,145.3 250.5,178.1 "/>
<polygon class="st2" points="256.3,235.6 240.5,233 247.8,187.4 158.2,153 170.2,123.8 184.8,123.8 209.5,117.3 243.5,128 
	196.9,22.3 196.9,4.5 212.9,4.5 212.9,18.9 272.4,153.9 209.1,133.9 186.9,139.8 180.9,139.8 179.2,143.9 265.7,177.1 "/>
<path class="st6" d="M387.3,80.6"/>
<polygon class="st2" points="365.9,156.5 276.8,150.2 278.9,120.3 359.8,126 413.4,98.9 426.9,125.7 "/>
<polygon class="st2" points="235.3,384.3 205.9,378.6 233.6,236.2 249.4,141.8 249.7,140.8 293.6,0 322.3,8.9 278.7,148.8 
	263.1,241.8 "/>
<polygon class="st2" points="383,273.1 381.7,272.9 245.8,249.1 181.5,237.8 11.7,112.1 29.6,88 193.7,209.5 251,219.5 385.6,243.1 
	445.2,242.9 445.3,272.9 "/>
<path class="st2" d="M245.1,157.7c-1,0.4-1.9,0.6-2.9,0.3l-1.2-1.3c-0.3-1.7-0.5-6-0.5-7.6c-1,3.6-1.8,7.3-1.9,11.1l-0.4,0.4
	l-1.3-0.3c-0.4-1.7-0.8-3.5-1-5.4c-0.3-1.9-0.4-3.7-0.4-5.6c-0.9,1.8-1.4,3.8-1.7,5.9c-0.3,2.2-0.4,4.5-0.4,6.7l-1.2-0.3l-0.6-1.4
	c-0.4-5.6-0.4-9.7,0.3-15.4c0,0-1,1-1.5,1.6c-0.6,0.7-1.1,1.5-1.6,2.2l-0.1-0.1c0.2-1.1,0.9-2.3,1.5-3.4c0.6-1,1.2-1.9,1.8-2.7
	l1.2,0.4l0.3,1.3c-0.4,3-0.7,5.9-0.6,9c0.4-1.2,0.7-2.2,1.1-3.2c0.5-1.1,1-2.1,1.5-3.2l1.1,0.3l0.3,1.1c0.1,3,0.2,6.1,0.9,9.1
	c0.3-1.9,0.4-3.6,0.9-5.8c0.5-2.3,1-3.9,1.8-5.7l1.1,0.2l0.4,1.4c-0.2,2.8-0.2,5.3,0.2,8.1c0.1,0.7,0.3,1.3,1,1.5
	c0.6,0.2,1.1,0,1.6-0.1L245.1,157.7z"/>
</svg>
