<?xml version="1.0" encoding="utf-8"?>
<!-- Generator: Adobe Illustrator 26.0.2, SVG Export Plug-In . SVG Version: 6.00 Build 0)  -->
<svg version="1.1" xmlns="http://www.w3.org/2000/svg" xmlns:xlink="http://www.w3.org/1999/xlink" x="0px" y="0px"
	 viewBox="0 0 445.2 404.1" style="enable-background:new 0 0 445.2 404.1;" xml:space="preserve">
<style type="text/css">
	.st0{fill:none;}
	.st1{fill:#EE7203;}
	.st2{fill:none;stroke:#FFFFFF;stroke-width:7;stroke-miterlimit:10;}
	.st3{fill:#1D1D1C;}
	.st4{fill:#E03573;}
	.st5{fill:url(#New_Pattern_orange_x5F_genom);}
	.st6{fill:#FFFFFF;}
</style>
<pattern  x="-198.6" y="-381.1" width="3.4" height="55.9" patternUnits="userSpaceOnUse" id="New_Pattern_orange_x5F_genom" viewBox="0 -55.9 3.4 55.9" style="overflow:visible;">
	<g>
		<rect y="-55.9" class="st0" width="3.4" height="55.9"/>
		<rect x="0" y="-55.9" class="st1" width="1.7" height="55.9"/>
		<rect x="1.7" y="-55.9" class="st0" width="1.7" height="55.9"/>
	</g>
</pattern>
<g id="Layer_1">
	<path class="st2" d="M139.8,281.8"/>
	<g>
		<path d="M104.2,1.3l-0.7,0.4c-0.1-0.2-0.3-0.4-0.4-0.5c-0.1-0.1-0.3-0.1-0.5-0.1c-0.3,0-0.5,0.1-0.6,0.2c-0.2,0.1-0.2,0.3-0.2,0.5
			c0,0.3,0.2,0.5,0.7,0.7l0.6,0.2c0.5,0.2,0.8,0.4,1.1,0.7s0.3,0.6,0.3,1c0,0.6-0.2,1-0.6,1.4c-0.4,0.4-0.8,0.5-1.4,0.5
			c-0.5,0-1-0.2-1.3-0.5c-0.3-0.3-0.5-0.7-0.6-1.3l0.9-0.2c0,0.4,0.1,0.6,0.2,0.7c0.2,0.3,0.5,0.4,0.8,0.4c0.3,0,0.5-0.1,0.7-0.3
			s0.3-0.4,0.3-0.7c0-0.1,0-0.2,0-0.3s-0.1-0.2-0.2-0.3s-0.2-0.2-0.3-0.2s-0.2-0.1-0.4-0.2L102,3.4c-0.8-0.3-1.2-0.9-1.2-1.5
			c0-0.5,0.2-0.8,0.5-1.1c0.3-0.3,0.8-0.5,1.3-0.5C103.3,0.3,103.8,0.6,104.2,1.3z"/>
		<path d="M107.2,1.3v5.2h-0.9V1.3h-1.4V0.4h3.7v0.9H107.2z"/>
		<path d="M112.6,5h-2.6l-0.7,1.5h-1l3-6.4l2.9,6.4h-1L112.6,5z M112.3,4.1l-0.9-2.1l-0.9,2.1H112.3z"/>
		<path d="M115,6.4v-6h1.3c0.6,0,1.1,0.1,1.4,0.2c0.4,0.1,0.7,0.3,1,0.6c0.6,0.6,0.9,1.3,0.9,2.2c0,0.9-0.3,1.7-1,2.2
			c-0.3,0.3-0.7,0.5-1,0.6c-0.3,0.1-0.8,0.2-1.4,0.2H115z M115.9,5.6h0.4c0.4,0,0.7,0,1-0.1c0.3-0.1,0.5-0.2,0.7-0.4
			c0.4-0.4,0.7-0.9,0.7-1.6c0-0.7-0.2-1.2-0.7-1.6c-0.4-0.4-1-0.6-1.8-0.6h-0.4V5.6z"/>
		<path d="M124.3,1.3l-0.7,0.4c-0.1-0.2-0.3-0.4-0.4-0.5c-0.1-0.1-0.3-0.1-0.5-0.1c-0.3,0-0.5,0.1-0.6,0.2c-0.2,0.1-0.2,0.3-0.2,0.5
			c0,0.3,0.2,0.5,0.7,0.7l0.6,0.2c0.5,0.2,0.8,0.4,1.1,0.7s0.3,0.6,0.3,1c0,0.6-0.2,1-0.6,1.4c-0.4,0.4-0.8,0.5-1.4,0.5
			c-0.5,0-1-0.2-1.3-0.5c-0.3-0.3-0.5-0.7-0.6-1.3l0.9-0.2c0,0.4,0.1,0.6,0.2,0.7c0.2,0.3,0.5,0.4,0.8,0.4c0.3,0,0.5-0.1,0.7-0.3
			s0.3-0.4,0.3-0.7c0-0.1,0-0.2,0-0.3s-0.1-0.2-0.2-0.3s-0.2-0.2-0.3-0.2s-0.2-0.1-0.4-0.2L122,3.4c-0.8-0.3-1.2-0.9-1.2-1.5
			c0-0.5,0.2-0.8,0.5-1.1c0.3-0.3,0.8-0.5,1.3-0.5C123.3,0.3,123.9,0.6,124.3,1.3z"/>
		<path d="M126.4,4v2.4h-0.9v-6h1c0.5,0,0.9,0,1.1,0.1c0.3,0.1,0.5,0.2,0.7,0.4c0.3,0.3,0.5,0.8,0.5,1.3c0,0.6-0.2,1-0.6,1.3
			C128,3.8,127.5,4,126.8,4H126.4z M126.4,3.1h0.3c0.8,0,1.3-0.3,1.3-1c0-0.6-0.4-0.9-1.3-0.9h-0.3V3.1z"/>
		<path d="M132.9,5h-2.6l-0.7,1.5h-1l3-6.4l2.9,6.4h-1L132.9,5z M132.6,4.1l-0.9-2.1l-0.9,2.1H132.6z"/>
		<path d="M137.4,3.9l1.9,2.6h-1.1L136.4,4h-0.2v2.5h-0.9v-6h1.1c0.8,0,1.4,0.1,1.7,0.4c0.4,0.3,0.6,0.8,0.6,1.3
			c0,0.4-0.1,0.8-0.4,1.1S137.8,3.8,137.4,3.9z M136.2,3.2h0.3c0.9,0,1.3-0.3,1.3-1c0-0.6-0.4-0.9-1.3-0.9h-0.3V3.2z"/>
		<path d="M141,2.8l2.3-2.4h1.2l-2.7,2.7l2.7,3.3h-1.2l-2.2-2.7L141,3.9v2.5h-0.9v-6h0.9V2.8z"/>
		<path d="M148.8,1.3h-2.4v1.4h2.3v0.9h-2.3v2h2.4v0.9h-3.3v-6h3.3V1.3z"/>
		<path d="M149.9,6.4V0l4.4,4.6V0.4h0.9v6.4l-4.4-4.6v4.2H149.9z"/>
	</g>
	<g>
		<path d="M123.3,184.1l0,3.2l-0.9-0.7l0.1-3l-0.1-0.1l-1.5,2l-0.7-0.5l3.6-4.9l0.9,0.6c0.6,0.5,1,0.9,1.1,1.4c0.1,0.5,0,1-0.3,1.4
			c-0.3,0.3-0.6,0.6-0.9,0.7C124.1,184.3,123.7,184.2,123.3,184.1z M122.8,182.8l0.2,0.2c0.7,0.5,1.2,0.5,1.6,0
			c0.4-0.5,0.2-1-0.5-1.5l-0.3-0.2L122.8,182.8z"/>
		<path d="M128.4,183.4l-3.6,4.9l-0.7-0.5l3.6-4.9L128.4,183.4z"/>
		<path d="M126,189.2l3.8-5.2l0.8,6.3l2.5-3.4l0.7,0.5l-3.8,5.2l-0.8-6.3l-2.5,3.4L126,189.2z"/>
		<path d="M135.8,192.5l2,1.5l-0.1,0.2c-0.3,0.4-0.5,0.7-0.8,0.9c-0.3,0.2-0.6,0.3-1,0.4c-0.8,0.2-1.6,0-2.3-0.5
			c-0.7-0.5-1.1-1.2-1.2-2c-0.1-0.8,0.1-1.6,0.6-2.3c0.5-0.7,1.2-1.1,2.1-1.3c0.9-0.1,1.6,0.1,2.3,0.6c0.4,0.3,0.7,0.6,0.9,1
			c0.2,0.4,0.3,0.9,0.4,1.4l-0.9,0.1c0-0.8-0.3-1.4-0.9-1.9c-0.5-0.4-1.1-0.5-1.7-0.4c-0.6,0.1-1.1,0.4-1.5,0.9
			c-0.4,0.5-0.5,1.1-0.4,1.8c0.1,0.6,0.4,1,0.8,1.4c0.4,0.3,0.8,0.4,1.2,0.3c0.5,0,0.8-0.2,1.1-0.5l-1.2-0.9L135.8,192.5z"/>
		<path d="M140.6,192.4l-1.1,4.4l3.8-2.4l0.8,0.6l-6,3.6l1.7-6.8L140.6,192.4z"/>
		<path d="M144.5,200.9l-2.1-1.5l-1.4,0.8l-0.8-0.6l6.2-3.4l-1.5,6.9l-0.8-0.6L144.5,200.9z M145.7,194.7c0.1-0.1,0.2-0.2,0.4-0.2
			c0.2,0,0.3,0,0.4,0.1c0.1,0.1,0.2,0.2,0.2,0.4c0,0.2,0,0.3-0.1,0.4c-0.1,0.1-0.2,0.2-0.4,0.2c-0.2,0-0.3,0-0.4-0.1
			c-0.1-0.1-0.2-0.2-0.2-0.4C145.6,194.9,145.6,194.8,145.7,194.7z M144.7,200l0.5-2.2l-2,1.1L144.7,200z M147.1,195.7
			c0.1-0.1,0.2-0.2,0.4-0.2c0.2,0,0.3,0,0.4,0.1c0.1,0.1,0.2,0.2,0.2,0.4c0,0.2,0,0.3-0.1,0.4c-0.1,0.1-0.2,0.2-0.4,0.2
			c-0.2,0-0.3,0-0.4-0.1c-0.1-0.1-0.2-0.2-0.2-0.4C147,196,147,195.8,147.1,195.7z"/>
		<path d="M149.6,202.6l2,1.5l-0.1,0.2c-0.3,0.4-0.5,0.7-0.8,0.9c-0.3,0.2-0.6,0.3-1,0.4c-0.8,0.2-1.6,0-2.3-0.5
			c-0.7-0.5-1.1-1.2-1.2-2c-0.1-0.8,0.1-1.6,0.6-2.3c0.5-0.7,1.2-1.1,2.1-1.3c0.9-0.1,1.6,0.1,2.3,0.6c0.4,0.3,0.7,0.6,0.9,1
			c0.2,0.4,0.3,0.9,0.4,1.4l-0.9,0.1c0-0.8-0.3-1.4-0.9-1.9c-0.5-0.4-1.1-0.5-1.7-0.4c-0.6,0.1-1.1,0.4-1.5,0.9
			c-0.4,0.5-0.5,1.1-0.4,1.8c0.1,0.6,0.4,1,0.8,1.4c0.4,0.3,0.8,0.4,1.2,0.3c0.5,0,0.8-0.2,1.1-0.5l-1.2-0.9L149.6,202.6z"/>
		<path d="M156.5,205.1l-2-1.4l-0.9,1.2l1.9,1.4l-0.5,0.7l-1.9-1.4l-1.2,1.6l2,1.4l-0.5,0.7l-2.7-2l3.6-4.9l2.7,2L156.5,205.1z"/>
		<path d="M154.4,210l3.8-5.2l0.8,6.3l2.5-3.4l0.7,0.5l-3.8,5.2l-0.8-6.3l-2.5,3.4L154.4,210z"/>
	</g>
	<g>
		<path d="M324.9,1.6L324.1,2c-0.1-0.2-0.3-0.4-0.4-0.5c-0.1-0.1-0.3-0.1-0.5-0.1c-0.3,0-0.5,0.1-0.6,0.2c-0.2,0.1-0.2,0.3-0.2,0.5
			c0,0.3,0.2,0.5,0.7,0.7l0.6,0.2c0.5,0.2,0.8,0.4,1.1,0.7s0.3,0.6,0.3,1c0,0.6-0.2,1-0.6,1.4c-0.4,0.4-0.8,0.5-1.4,0.5
			c-0.5,0-1-0.2-1.3-0.5c-0.3-0.3-0.5-0.7-0.6-1.3l0.9-0.2c0,0.4,0.1,0.6,0.2,0.7c0.2,0.3,0.5,0.4,0.8,0.4c0.3,0,0.5-0.1,0.7-0.3
			s0.3-0.4,0.3-0.7c0-0.1,0-0.2,0-0.3c0-0.1-0.1-0.2-0.2-0.3c-0.1-0.1-0.2-0.2-0.3-0.2s-0.2-0.1-0.4-0.2l-0.6-0.2
			c-0.8-0.3-1.2-0.9-1.2-1.5c0-0.5,0.2-0.8,0.5-1.1c0.3-0.3,0.8-0.5,1.3-0.5C323.9,0.5,324.5,0.9,324.9,1.6z"/>
		<path d="M327.9,1.5v5.2H327V1.5h-1.4V0.7h3.7v0.9H327.9z"/>
		<path d="M329.6,3.7c0-0.8,0.3-1.6,0.9-2.2c0.6-0.6,1.4-0.9,2.2-0.9c0.9,0,1.6,0.3,2.2,0.9c0.6,0.6,0.9,1.4,0.9,2.2
			c0,0.9-0.3,1.6-0.9,2.2c-0.6,0.6-1.4,0.9-2.3,0.9c-0.8,0-1.5-0.3-2.1-0.8C330,5.4,329.6,4.6,329.6,3.7z M330.5,3.7
			c0,0.7,0.2,1.2,0.7,1.6c0.4,0.4,1,0.6,1.5,0.6c0.6,0,1.2-0.2,1.6-0.7c0.4-0.4,0.7-1,0.7-1.6c0-0.6-0.2-1.2-0.6-1.6
			c-0.4-0.4-1-0.7-1.6-0.7c-0.6,0-1.2,0.2-1.6,0.7C330.7,2.5,330.5,3,330.5,3.7z"/>
		<path d="M339.1,4.1l1.9,2.6h-1.1l-1.7-2.5H338v2.5h-0.9v-6h1.1c0.8,0,1.4,0.1,1.7,0.4c0.4,0.3,0.6,0.8,0.6,1.3
			c0,0.4-0.1,0.8-0.4,1.1C339.8,3.8,339.5,4,339.1,4.1z M338,3.4h0.3c0.9,0,1.3-0.3,1.3-1c0-0.6-0.4-0.9-1.3-0.9H338V3.4z"/>
		<path d="M343.5,1.5v5.2h-0.9V1.5h-1.4V0.7h3.7v0.9H343.5z"/>
		<path d="M345.2,3.7c0-0.8,0.3-1.6,0.9-2.2c0.6-0.6,1.4-0.9,2.2-0.9c0.9,0,1.6,0.3,2.2,0.9c0.6,0.6,0.9,1.4,0.9,2.2
			c0,0.9-0.3,1.6-0.9,2.2c-0.6,0.6-1.4,0.9-2.3,0.9c-0.8,0-1.5-0.3-2.1-0.8C345.5,5.4,345.2,4.6,345.2,3.7z M346.1,3.7
			c0,0.7,0.2,1.2,0.7,1.6c0.4,0.4,1,0.6,1.5,0.6c0.6,0,1.2-0.2,1.6-0.7c0.4-0.4,0.7-1,0.7-1.6c0-0.6-0.2-1.2-0.6-1.6
			c-0.4-0.4-1-0.7-1.6-0.7c-0.6,0-1.2,0.2-1.6,0.7C346.3,2.5,346.1,3,346.1,3.7z"/>
		<path d="M354.7,4.1l1.9,2.6h-1.1l-1.7-2.5h-0.2v2.5h-0.9v-6h1.1c0.8,0,1.4,0.1,1.7,0.4c0.4,0.3,0.6,0.8,0.6,1.3
			c0,0.4-0.1,0.8-0.4,1.1C355.4,3.8,355.1,4,354.7,4.1z M353.5,3.4h0.3c0.9,0,1.3-0.3,1.3-1c0-0.6-0.4-0.9-1.3-0.9h-0.3V3.4z"/>
		<path d="M360.4,3.6h2.5v0.2c0,0.5-0.1,0.9-0.2,1.2c-0.1,0.3-0.3,0.6-0.5,0.9c-0.6,0.6-1.3,0.9-2.1,0.9c-0.8,0-1.6-0.3-2.2-0.9
			c-0.6-0.6-0.9-1.3-0.9-2.2c0-0.9,0.3-1.6,0.9-2.2c0.6-0.6,1.4-0.9,2.2-0.9c0.5,0,0.9,0.1,1.3,0.3c0.4,0.2,0.8,0.5,1.2,0.9L362,2.4
			c-0.5-0.7-1.1-1-1.8-1c-0.6,0-1.2,0.2-1.6,0.7c-0.4,0.4-0.6,1-0.6,1.6c0,0.7,0.2,1.2,0.7,1.7c0.5,0.4,0.9,0.6,1.5,0.6
			c0.4,0,0.9-0.2,1.2-0.5c0.4-0.3,0.6-0.7,0.6-1.1h-1.5V3.6z"/>
		<path d="M367.4,1.5H365V3h2.3v0.9H365v2h2.4v0.9H364v-6h3.3V1.5z"/>
		<path d="M370.2,1.5v5.2h-0.9V1.5h-1.4V0.7h3.7v0.9H370.2z"/>
	</g>
	<g>
		<path d="M278.8,145.6L278,146c-0.1-0.2-0.2-0.4-0.4-0.5c-0.1-0.1-0.3-0.1-0.5-0.2c-0.3,0-0.5,0-0.6,0.2c-0.2,0.1-0.3,0.3-0.3,0.5
			c0,0.3,0.2,0.5,0.6,0.8l0.6,0.3c0.5,0.2,0.8,0.5,1,0.8c0.2,0.3,0.3,0.7,0.3,1.1c0,0.6-0.3,1-0.6,1.3c-0.4,0.3-0.9,0.5-1.4,0.5
			c-0.5,0-0.9-0.2-1.3-0.6c-0.3-0.3-0.5-0.8-0.5-1.3l0.9-0.1c0,0.4,0.1,0.6,0.2,0.7c0.2,0.3,0.4,0.4,0.8,0.4c0.3,0,0.5-0.1,0.7-0.2
			c0.2-0.2,0.3-0.4,0.3-0.7c0-0.1,0-0.2,0-0.3c0-0.1-0.1-0.2-0.1-0.3c-0.1-0.1-0.1-0.2-0.3-0.2c-0.1-0.1-0.2-0.2-0.4-0.2l-0.6-0.3
			c-0.8-0.4-1.2-0.9-1.1-1.6c0-0.5,0.2-0.8,0.6-1.1c0.4-0.3,0.8-0.4,1.3-0.4C277.9,144.5,278.4,144.9,278.8,145.6z"/>
		<path d="M279.6,147.7c0.1-0.8,0.4-1.6,1.1-2.1c0.7-0.6,1.4-0.8,2.3-0.8c0.9,0.1,1.6,0.4,2.1,1.1c0.6,0.7,0.8,1.4,0.8,2.3
			c-0.1,0.9-0.4,1.6-1.1,2.1c-0.7,0.6-1.4,0.8-2.3,0.8c-0.8-0.1-1.5-0.4-2-0.9C279.8,149.5,279.5,148.7,279.6,147.7z M280.5,147.8
			c0,0.7,0.1,1.2,0.6,1.7c0.4,0.5,0.9,0.7,1.5,0.7c0.6,0,1.2-0.1,1.6-0.5c0.5-0.4,0.7-0.9,0.8-1.6c0-0.6-0.1-1.2-0.5-1.7
			c-0.4-0.5-0.9-0.7-1.5-0.8c-0.6,0-1.2,0.1-1.6,0.5C280.8,146.7,280.5,147.2,280.5,147.8z M281.6,143.7c0-0.2,0.1-0.3,0.2-0.4
			c0.1-0.1,0.2-0.1,0.4-0.1c0.2,0,0.3,0.1,0.4,0.2c0.1,0.1,0.1,0.3,0.1,0.4c0,0.2-0.1,0.3-0.2,0.4c-0.1,0.1-0.2,0.1-0.4,0.1
			c-0.2,0-0.3-0.1-0.4-0.2C281.6,144,281.6,143.9,281.6,143.7z M283.3,143.8c0-0.2,0.1-0.3,0.2-0.4s0.3-0.1,0.4-0.1
			c0.2,0,0.3,0.1,0.4,0.2c0.1,0.1,0.1,0.3,0.1,0.4c0,0.2-0.1,0.3-0.2,0.4s-0.3,0.1-0.4,0.1c-0.2,0-0.3-0.1-0.4-0.2
			C283.4,144.1,283.3,144,283.3,143.8z"/>
		<path d="M286.8,151.3l0.4-6l1.3,0.1c0.6,0,1.1,0.1,1.4,0.3c0.4,0.1,0.7,0.4,1,0.7c0.6,0.6,0.8,1.4,0.8,2.3
			c-0.1,0.9-0.4,1.7-1.1,2.2c-0.3,0.3-0.7,0.4-1.1,0.5c-0.3,0.1-0.8,0.1-1.4,0.1L286.8,151.3z M287.8,150.5l0.4,0c0.4,0,0.7,0,1-0.1
			c0.3-0.1,0.5-0.2,0.8-0.4c0.5-0.4,0.7-0.9,0.8-1.5c0-0.7-0.1-1.2-0.6-1.7c-0.4-0.4-0.9-0.6-1.7-0.7l-0.4,0L287.8,150.5z"/>
		<path d="M294.8,149.2l1.7,2.7l-1.1-0.1l-1.6-2.6l-0.2,0l-0.2,2.5l-0.9-0.1l0.4-6l1.1,0.1c0.8,0.1,1.4,0.2,1.7,0.6
			c0.4,0.4,0.5,0.8,0.5,1.4c0,0.4-0.2,0.8-0.4,1.1C295.5,149,295.2,149.2,294.8,149.2z M293.7,148.5l0.3,0c0.9,0.1,1.3-0.2,1.4-0.9
			c0-0.6-0.4-1-1.2-1l-0.3,0L293.7,148.5z"/>
		<path d="M301,150.8l-2.6-0.2l-0.8,1.4l-1-0.1l3.4-6.2l2.4,6.6l-1-0.1L301,150.8z M300.7,149.9l-0.8-2.1l-1.1,2L300.7,149.9z"/>
		<path d="M309.4,147.6l-2.4-0.2l-0.1,1.4l2.3,0.2l-0.1,0.9l-2.3-0.2l-0.1,2l2.4,0.2l-0.1,0.9l-3.3-0.2l0.4-6l3.3,0.2L309.4,147.6z"
			/>
		<path d="M314,148l-0.8,0.4c-0.1-0.2-0.2-0.4-0.4-0.5c-0.1-0.1-0.3-0.1-0.5-0.2c-0.3,0-0.5,0-0.6,0.2c-0.2,0.1-0.3,0.3-0.3,0.5
			c0,0.3,0.2,0.5,0.6,0.8l0.6,0.3c0.5,0.2,0.8,0.5,1,0.8c0.2,0.3,0.3,0.7,0.3,1.1c0,0.6-0.3,1-0.6,1.3c-0.4,0.3-0.9,0.5-1.4,0.5
			c-0.5,0-0.9-0.2-1.3-0.6c-0.3-0.3-0.5-0.8-0.5-1.3l0.9-0.1c0,0.4,0.1,0.6,0.2,0.7c0.2,0.3,0.4,0.4,0.8,0.4c0.3,0,0.5-0.1,0.7-0.2
			c0.2-0.2,0.3-0.4,0.3-0.7c0-0.1,0-0.2,0-0.3c0-0.1-0.1-0.2-0.1-0.3c-0.1-0.1-0.1-0.2-0.3-0.2c-0.1-0.1-0.2-0.2-0.4-0.2l-0.6-0.3
			c-0.8-0.4-1.2-0.9-1.1-1.6c0-0.5,0.2-0.8,0.6-1.1c0.4-0.3,0.8-0.4,1.3-0.4C313.2,146.9,313.7,147.3,314,148z"/>
		<path d="M316,150.8l-0.2,2.4l-0.9-0.1l0.4-6l1,0.1c0.5,0,0.9,0.1,1.1,0.2c0.3,0.1,0.5,0.2,0.7,0.4c0.3,0.4,0.5,0.8,0.4,1.3
			c0,0.6-0.3,1-0.6,1.3c-0.4,0.3-0.9,0.4-1.5,0.4L316,150.8z M316.1,150l0.3,0c0.8,0.1,1.3-0.2,1.3-0.9c0-0.6-0.4-1-1.2-1l-0.3,0
			L316.1,150z"/>
		<path d="M320.6,147.5l-0.4,5.2l1.8,0.1l-0.1,0.9l-2.7-0.2l0.4-6L320.6,147.5z"/>
		<path d="M326.8,152.5l-2.6-0.2l-0.8,1.4l-1-0.1l3.4-6.2l2.4,6.6l-1-0.1L326.8,152.5z M326.4,151.7l-0.8-2.1l-1.1,2L326.4,151.7z"
			/>
		<path d="M329,154.2l0.4-6.4l4.1,4.9l0.3-4.2l0.9,0.1l-0.4,6.4l-4.1-4.9l-0.3,4.2L329,154.2z"/>
		<path d="M339.5,153.4l-2.6-0.2l-0.8,1.4l-1-0.1l3.4-6.2l2.4,6.6l-1-0.1L339.5,153.4z M339.1,152.5l-0.8-2.1l-1.1,2L339.1,152.5z"
			/>
		<path d="M341.7,155l0.4-6l1.3,0.1c0.6,0,1.1,0.1,1.4,0.3c0.4,0.1,0.7,0.4,1,0.7c0.6,0.6,0.8,1.4,0.8,2.3c-0.1,0.9-0.4,1.7-1.1,2.2
			c-0.3,0.3-0.7,0.4-1.1,0.5c-0.3,0.1-0.8,0.1-1.4,0.1L341.7,155z M342.7,154.2l0.4,0c0.4,0,0.7,0,1-0.1c0.3-0.1,0.5-0.2,0.8-0.4
			c0.5-0.4,0.7-0.9,0.8-1.5c0-0.7-0.1-1.2-0.6-1.7c-0.4-0.4-0.9-0.6-1.7-0.7l-0.4,0L342.7,154.2z"/>
		<path d="M351.2,150.5l-2.4-0.2l-0.1,1.4l2.3,0.2l-0.1,0.9l-2.3-0.2l-0.1,2l2.4,0.2l-0.1,0.9l-3.3-0.2l0.4-6l3.3,0.2L351.2,150.5z"
			/>
		<path d="M352,155.7l0.4-6.4l4.1,4.9l0.3-4.2l0.9,0.1l-0.4,6.4l-4.1-4.9l-0.3,4.2L352,155.7z"/>
	</g>
	<g>
		<path d="M191.1,403.8l1.3-6.5l2.1,4.7l2.1-4.7l1.1,6.5h-0.9l-0.6-3.6l-1.8,3.9l-1.7-3.9l-0.6,3.6H191.1z"/>
		<path d="M202.6,402.3H200l-0.7,1.5h-1l3-6.4l2.9,6.4h-1L202.6,402.3z M202.2,401.5l-0.9-2.1l-0.9,2.1H202.2z"/>
		<path d="M205.9,397.7v5.2h1.8v0.9H205v-6H205.9z"/>
		<path d="M208.3,403.8l1.3-6.5l2.1,4.7l2.1-4.7l1.1,6.5H214l-0.6-3.6l-1.8,3.9l-1.7-3.9l-0.6,3.6H208.3z"/>
		<path d="M215.9,400.7c0-0.8,0.3-1.6,0.9-2.2c0.6-0.6,1.4-0.9,2.2-0.9c0.9,0,1.6,0.3,2.2,0.9c0.6,0.6,0.9,1.4,0.9,2.2
			c0,0.9-0.3,1.6-0.9,2.2c-0.6,0.6-1.4,0.9-2.3,0.9c-0.8,0-1.5-0.3-2.1-0.8C216.3,402.5,215.9,401.7,215.9,400.7z M216.8,400.7
			c0,0.7,0.2,1.2,0.7,1.6c0.4,0.4,1,0.6,1.5,0.6c0.6,0,1.2-0.2,1.6-0.7c0.4-0.4,0.7-1,0.7-1.6c0-0.6-0.2-1.2-0.6-1.6
			c-0.4-0.4-1-0.7-1.6-0.7c-0.6,0-1.2,0.2-1.6,0.7C217,399.6,216.8,400.1,216.8,400.7z M217.6,396.6c0-0.2,0.1-0.3,0.2-0.4
			s0.2-0.2,0.4-0.2c0.2,0,0.3,0.1,0.4,0.2c0.1,0.1,0.2,0.2,0.2,0.4c0,0.2-0.1,0.3-0.2,0.4c-0.1,0.1-0.2,0.2-0.4,0.2
			c-0.2,0-0.3-0.1-0.4-0.2C217.7,396.9,217.6,396.7,217.6,396.6z M219.4,396.6c0-0.2,0.1-0.3,0.2-0.4s0.2-0.2,0.4-0.2
			s0.3,0.1,0.4,0.2s0.2,0.2,0.2,0.4c0,0.2-0.1,0.3-0.2,0.4s-0.2,0.2-0.4,0.2c-0.2,0-0.3-0.1-0.4-0.2
			C219.4,396.9,219.4,396.7,219.4,396.6z"/>
	</g>
	<g>
		<path d="M244.2,265.3l0.3,0.8c-0.3,0.1-0.4,0.2-0.5,0.3c-0.1,0.1-0.2,0.3-0.2,0.5c0,0.2,0,0.5,0.1,0.7c0.1,0.2,0.3,0.3,0.5,0.3
			c0.3,0,0.6-0.1,0.8-0.5l0.3-0.6c0.3-0.4,0.6-0.8,0.9-0.9c0.3-0.2,0.7-0.2,1.1-0.2c0.5,0.1,1,0.4,1.3,0.8c0.3,0.4,0.4,0.9,0.3,1.5
			c-0.1,0.5-0.3,0.9-0.7,1.2c-0.4,0.3-0.8,0.4-1.4,0.4l0-0.9c0.4,0,0.6,0,0.8-0.1c0.3-0.1,0.5-0.4,0.5-0.7c0-0.3,0-0.5-0.2-0.7
			s-0.4-0.3-0.7-0.4c-0.1,0-0.2,0-0.3,0c-0.1,0-0.2,0.1-0.3,0.1c-0.1,0.1-0.2,0.1-0.3,0.2s-0.2,0.2-0.3,0.4l-0.3,0.5
			c-0.5,0.8-1.1,1.1-1.7,1c-0.4-0.1-0.8-0.3-1-0.7c-0.2-0.4-0.3-0.8-0.2-1.4C243.1,266,243.5,265.6,244.2,265.3z"/>
		<path d="M244.7,262.3l5.1,0.9l-0.2,0.9l-5.1-0.9l-0.2,1.4l-0.8-0.1l0.6-3.6l0.8,0.1L244.7,262.3z"/>
		<path d="M249.7,261.2c-0.1,0-0.3-0.1-0.3-0.2c-0.1-0.1-0.1-0.3-0.1-0.4c0-0.1,0.1-0.3,0.2-0.4c0.1-0.1,0.3-0.1,0.4-0.1
			c0.1,0,0.3,0.1,0.4,0.2c0.1,0.1,0.1,0.3,0.1,0.4c0,0.2-0.1,0.3-0.2,0.4C250,261.2,249.8,261.2,249.7,261.2z"/>
		<path d="M246.5,252.1l0.3,0.8c-0.3,0.1-0.4,0.2-0.5,0.3c-0.1,0.1-0.2,0.3-0.2,0.5c0,0.2,0,0.5,0.1,0.7c0.1,0.2,0.3,0.3,0.5,0.3
			c0.3,0,0.6-0.1,0.8-0.5l0.3-0.6c0.3-0.4,0.6-0.8,0.9-0.9c0.3-0.2,0.7-0.2,1.1-0.2c0.5,0.1,1,0.4,1.3,0.8c0.3,0.4,0.4,0.9,0.3,1.5
			c-0.1,0.5-0.3,0.9-0.7,1.2c-0.4,0.3-0.8,0.4-1.4,0.4l0-0.9c0.4,0,0.6,0,0.8-0.1c0.3-0.1,0.5-0.4,0.5-0.7c0-0.3,0-0.5-0.2-0.7
			c-0.2-0.2-0.4-0.3-0.7-0.4c-0.1,0-0.2,0-0.3,0c-0.1,0-0.2,0.1-0.3,0.1c-0.1,0.1-0.2,0.1-0.3,0.2c-0.1,0.1-0.2,0.2-0.3,0.4
			l-0.3,0.5c-0.5,0.8-1.1,1.1-1.7,1c-0.4-0.1-0.8-0.3-1-0.7c-0.2-0.4-0.3-0.8-0.2-1.4C245.3,252.9,245.7,252.4,246.5,252.1z"/>
		<path d="M248.7,251.6c-0.8-0.1-1.5-0.6-2-1.3c-0.5-0.7-0.7-1.5-0.5-2.4c0.1-0.8,0.6-1.5,1.3-2c0.7-0.5,1.5-0.7,2.3-0.5
			c0.9,0.1,1.5,0.6,2,1.3c0.5,0.7,0.7,1.5,0.5,2.4c-0.1,0.8-0.5,1.4-1.2,1.9C250.5,251.5,249.6,251.7,248.7,251.6z M248.9,250.7
			c0.7,0.1,1.2,0,1.7-0.4c0.5-0.4,0.8-0.8,0.9-1.4c0.1-0.6,0-1.2-0.4-1.7c-0.4-0.5-0.9-0.8-1.5-0.9c-0.6-0.1-1.2,0-1.7,0.4
			c-0.5,0.3-0.8,0.8-0.9,1.5c-0.1,0.6,0,1.2,0.4,1.7C247.7,250.2,248.2,250.5,248.9,250.7z M244.9,249.2c-0.1,0-0.3-0.1-0.4-0.2
			c-0.1-0.1-0.1-0.3-0.1-0.4c0-0.2,0.1-0.3,0.2-0.4c0.1-0.1,0.3-0.1,0.4-0.1c0.2,0,0.3,0.1,0.4,0.2c0.1,0.1,0.1,0.3,0.1,0.4
			c0,0.2-0.1,0.3-0.2,0.4C245.2,249.2,245,249.2,244.9,249.2z M245.2,247.4c-0.1,0-0.3-0.1-0.4-0.2c-0.1-0.1-0.1-0.3-0.1-0.4
			c0-0.2,0.1-0.3,0.2-0.4c0.1-0.1,0.3-0.1,0.4-0.1c0.2,0,0.3,0.1,0.4,0.2c0.1,0.1,0.1,0.3,0.1,0.4c0,0.2-0.1,0.3-0.2,0.4
			C245.5,247.4,245.3,247.5,245.2,247.4z"/>
		<path d="M253,244.7l-5.9-1l0.2-1.2c0.1-0.6,0.2-1.1,0.4-1.4c0.2-0.4,0.4-0.7,0.8-0.9c0.7-0.5,1.5-0.7,2.4-0.5
			c0.9,0.2,1.6,0.6,2.1,1.3c0.2,0.4,0.4,0.7,0.4,1.1c0.1,0.3,0,0.8-0.1,1.4L253,244.7z M252.3,243.7l0.1-0.4c0.1-0.4,0.1-0.7,0-1
			c0-0.3-0.1-0.5-0.3-0.8c-0.3-0.5-0.8-0.8-1.5-0.9c-0.7-0.1-1.2,0-1.7,0.4c-0.4,0.3-0.7,0.9-0.8,1.6L248,243L252.3,243.7z"/>
		<path d="M249.4,234.8l-0.4,2.4l1.4,0.2l0.4-2.3l0.8,0.1l-0.4,2.3l2,0.3l0.4-2.4l0.8,0.1l-0.6,3.3l-5.9-1l0.6-3.3L249.4,234.8z"/>
		<path d="M252.5,232.1l2.8-1.4l-0.2,1.1l-2.7,1.3l0,0.2l2.4,0.4l-0.2,0.9l-5.9-1l0.2-1.1c0.1-0.8,0.4-1.3,0.7-1.6
			c0.4-0.3,0.9-0.4,1.4-0.4c0.4,0.1,0.8,0.3,1,0.5C252.3,231.3,252.5,231.7,252.5,232.1z M251.6,233.1l0-0.3
			c0.1-0.8-0.1-1.3-0.8-1.4c-0.6-0.1-1,0.3-1.1,1.1l-0.1,0.3L251.6,233.1z"/>
		<path d="M252.9,226.3l0.4-2.5l0.2,0c0.4,0.1,0.8,0.2,1.2,0.4c0.3,0.2,0.6,0.4,0.8,0.7c0.5,0.7,0.7,1.4,0.6,2.3
			c-0.1,0.8-0.6,1.5-1.3,2c-0.7,0.5-1.5,0.7-2.3,0.5c-0.9-0.1-1.5-0.6-2-1.3c-0.5-0.7-0.7-1.5-0.5-2.4c0.1-0.5,0.2-0.9,0.5-1.3
			c0.3-0.4,0.6-0.7,1.1-1l0.5,0.7c-0.7,0.4-1.2,0.9-1.3,1.6c-0.1,0.6,0,1.2,0.4,1.7c0.4,0.5,0.9,0.8,1.5,0.9c0.7,0.1,1.2,0,1.8-0.4
			c0.5-0.4,0.8-0.8,0.8-1.3c0.1-0.4,0-0.9-0.2-1.3c-0.2-0.4-0.6-0.7-1-0.8l-0.3,1.5L252.9,226.3z"/>
		<path d="M255.7,219.8l-0.4,2.5l1.3,0.9l-0.2,1l-5.8-4l6.8-1.8l-0.2,1L255.7,219.8z M254.8,220l-2.2,0.5l1.9,1.3L254.8,220z"/>
		<path d="M252.7,215.5l5.1,0.9l-0.2,0.9l-5.1-0.9l-0.2,1.4l-0.8-0.1l0.6-3.6l0.8,0.1L252.7,215.5z"/>
		<path d="M257.3,210.8l-0.4,2.5l1.3,0.9l-0.2,1l-5.8-4l6.8-1.8l-0.2,1L257.3,210.8z M256.4,211.1l-2.2,0.5l1.9,1.3L256.4,211.1z"/>
		<path d="M259.1,208.7l-6.3-1.1l5.3-3.6l-4.1-0.7l0.2-0.9l6.3,1.1l-5.3,3.6l4.2,0.7L259.1,208.7z"/>
	</g>
	<g>
		<path d="M211.6,42.2l1,2.3l-0.2,0.1c-0.4,0.2-0.8,0.3-1.2,0.3c-0.3,0-0.7,0-1-0.1c-0.8-0.3-1.4-0.8-1.7-1.6
			c-0.3-0.8-0.4-1.6-0.1-2.4c0.3-0.8,0.9-1.4,1.6-1.7c0.8-0.4,1.6-0.4,2.4-0.1c0.8,0.3,1.4,0.9,1.7,1.7c0.2,0.4,0.3,0.9,0.3,1.3
			c0,0.4-0.1,0.9-0.4,1.4l-0.8-0.3c0.4-0.7,0.5-1.4,0.2-2.1c-0.3-0.6-0.7-1-1.3-1.2c-0.6-0.2-1.2-0.2-1.7,0.1
			c-0.6,0.3-1,0.7-1.2,1.3c-0.2,0.6-0.2,1.1,0,1.6c0.2,0.4,0.5,0.7,0.9,0.9c0.4,0.2,0.8,0.2,1.2,0.1l-0.6-1.4L211.6,42.2z"/>
		<path d="M213,46.7l2.3-3.2l0.4,1l-1.6,2.2l2.8,0.3l0.4,1l-3.9-0.4l-2.4,1.1l-0.4-0.8L213,46.7z"/>
		<path d="M218,49.4l-4.7,2.1l0.7,1.6l-0.8,0.3l-1.1-2.4l5.5-2.5L218,49.4z"/>
		<path d="M219.4,52.6l-4.7,2.1l0.7,1.6l-0.8,0.3l-1.1-2.4l5.5-2.5L219.4,52.6z"/>
		<path d="M221.1,58.4l-1-2.2l-1.3,0.6l1,2.1l-0.8,0.3l-1-2.1l-1.8,0.8l1,2.2l-0.8,0.3l-1.4-3l5.5-2.5l1.4,3L221.1,58.4z"/>
		<path d="M216.8,61.6l5.9-2.6l-2.4,5.9l3.8-1.7l0.4,0.8l-5.8,2.6l2.4-5.9l-3.9,1.7L216.8,61.6z"/>
		<path d="M223.3,67.1l3.2,1.2l0.5,1.1l-3.6-1.4l-1.9,3.9l-0.5-1.1l1.6-3.1l-0.2-0.1l-2.3,1l-0.4-0.8l5.5-2.5l0.4,0.8L223.3,67.1z"
			/>
		<path d="M224.9,73.4l-1.6,2.8l-0.5-1l1.6-2.6l-0.1-0.1l-2.3,1l-0.4-0.8l5.5-2.5l0.4,1c0.3,0.7,0.4,1.3,0.3,1.8
			c-0.1,0.5-0.5,0.9-1,1.1c-0.4,0.2-0.8,0.2-1.2,0.1C225.5,74,225.2,73.7,224.9,73.4z M225.1,72.1l0.1,0.3c0.4,0.8,0.8,1,1.4,0.8
			c0.6-0.3,0.7-0.8,0.3-1.5l-0.1-0.3L225.1,72.1z"/>
		<path d="M226.3,75.4c0.8-0.3,1.6-0.4,2.4,0c0.8,0.3,1.4,0.9,1.7,1.7c0.4,0.8,0.4,1.6,0.1,2.4c-0.3,0.8-0.9,1.4-1.6,1.7
			c-0.8,0.4-1.6,0.4-2.4,0.1c-0.8-0.3-1.4-0.9-1.8-1.7c-0.3-0.7-0.4-1.5-0.1-2.2C224.9,76.4,225.4,75.7,226.3,75.4z M226.7,76.2
			c-0.6,0.3-1,0.7-1.2,1.3c-0.2,0.6-0.2,1.1,0,1.7c0.3,0.6,0.7,1,1.3,1.2c0.6,0.2,1.2,0.2,1.7-0.1c0.6-0.3,1-0.7,1.2-1.2
			c0.2-0.6,0.2-1.1,0-1.7c-0.3-0.6-0.7-1-1.2-1.2C227.9,75.9,227.3,75.9,226.7,76.2z"/>
		<path d="M230.3,82.7l3.2,1.2l0.5,1.1l-3.6-1.4l-1.9,3.9l-0.5-1.1l1.6-3.1l-0.2-0.1l-2.3,1l-0.4-0.8l5.5-2.5l0.4,0.8L230.3,82.7z"
			/>
		<path d="M234.7,89.1l-0.7-0.5c0.2-0.2,0.3-0.4,0.3-0.6c0-0.2,0-0.3-0.1-0.5c-0.1-0.2-0.3-0.4-0.5-0.5c-0.2-0.1-0.4-0.1-0.6,0
			c-0.3,0.1-0.4,0.4-0.4,0.9l0,0.6c0,0.5-0.1,1-0.2,1.3c-0.2,0.3-0.4,0.6-0.8,0.7c-0.5,0.2-1,0.2-1.5,0.1c-0.5-0.2-0.8-0.5-1.1-1
			c-0.2-0.5-0.2-0.9-0.1-1.4c0.1-0.4,0.5-0.8,0.9-1.1l0.6,0.8c-0.3,0.2-0.5,0.3-0.6,0.5c-0.2,0.3-0.2,0.6,0,0.9
			c0.1,0.3,0.3,0.4,0.5,0.5s0.5,0.1,0.8,0c0.1,0,0.2-0.1,0.3-0.2c0.1-0.1,0.1-0.2,0.2-0.2c0-0.1,0.1-0.2,0.1-0.3c0-0.1,0-0.3,0-0.4
			l0-0.6c0-0.9,0.3-1.5,0.9-1.8c0.4-0.2,0.8-0.2,1.2,0c0.4,0.2,0.7,0.5,0.9,1C235.3,87.8,235.2,88.4,234.7,89.1z"/>
		<path d="M234.4,97.2l-1.1-2.4l-1.6,0l-0.4-0.9l7.1,0.1l-4.7,5.2l-0.4-0.9L234.4,97.2z M235,96.5l1.5-1.7l-2.3,0L235,96.5z"/>
		<path d="M239.9,98.3l-4.7,2.1l0.7,1.6l-0.8,0.3L234,100l5.5-2.5L239.9,98.3z"/>
		<path d="M241.3,101.6l-4.7,2.1l0.7,1.6l-0.8,0.3l-1.1-2.4l5.5-2.5L241.3,101.6z"/>
		<path d="M243,107.4l-1-2.2l-1.3,0.6l1,2.1l-0.8,0.3l-1-2.1l-1.8,0.8l1,2.2l-0.8,0.3l-1.4-3l5.5-2.5l1.4,3L243,107.4z M245.1,106.1
			l-1.6-1l0.2-0.5l1.7,0.6L245.1,106.1z"/>
	</g>
	<g>
		<path d="M288.8,247.3l-0.8,0.3c-0.1-0.3-0.2-0.4-0.3-0.5c-0.1-0.1-0.3-0.2-0.5-0.2c-0.2,0-0.5,0-0.7,0.1c-0.2,0.1-0.3,0.3-0.3,0.5
			c-0.1,0.3,0.1,0.6,0.5,0.8l0.5,0.3c0.4,0.3,0.8,0.6,0.9,0.9c0.2,0.3,0.2,0.7,0.2,1.1c-0.1,0.5-0.4,1-0.8,1.3
			c-0.4,0.3-0.9,0.4-1.5,0.3c-0.5-0.1-0.9-0.3-1.2-0.7c-0.3-0.4-0.4-0.8-0.4-1.4l0.9,0c0,0.4,0,0.6,0.1,0.8c0.1,0.3,0.4,0.5,0.7,0.5
			c0.3,0,0.5,0,0.7-0.2c0.2-0.2,0.4-0.4,0.4-0.7c0-0.1,0-0.2,0-0.3c0-0.1,0-0.2-0.1-0.3c-0.1-0.1-0.1-0.2-0.2-0.3
			c-0.1-0.1-0.2-0.2-0.3-0.3l-0.5-0.3c-0.8-0.5-1.1-1.1-1-1.7c0.1-0.4,0.3-0.8,0.7-1c0.4-0.2,0.8-0.3,1.4-0.2
			C288,246.2,288.5,246.6,288.8,247.3z"/>
		<path d="M289.3,249.5c0.1-0.8,0.6-1.5,1.3-2c0.7-0.5,1.5-0.7,2.4-0.5c0.8,0.1,1.5,0.6,2,1.3c0.5,0.7,0.7,1.5,0.5,2.3
			c-0.2,0.9-0.6,1.5-1.3,2c-0.7,0.5-1.5,0.7-2.4,0.5c-0.8-0.1-1.4-0.5-1.9-1.2C289.4,251.3,289.2,250.5,289.3,249.5z M290.2,249.7
			c-0.1,0.7,0,1.2,0.4,1.7c0.4,0.5,0.8,0.8,1.4,0.9c0.6,0.1,1.2,0,1.7-0.4c0.5-0.4,0.8-0.9,0.9-1.5c0.1-0.6,0-1.2-0.4-1.7
			c-0.3-0.5-0.8-0.8-1.4-0.9c-0.6-0.1-1.2,0-1.7,0.4C290.6,248.6,290.3,249.1,290.2,249.7z M291.7,245.7c0-0.1,0.1-0.3,0.2-0.4
			c0.1-0.1,0.3-0.1,0.4-0.1c0.2,0,0.3,0.1,0.4,0.2c0.1,0.1,0.1,0.3,0.1,0.4c0,0.2-0.1,0.3-0.2,0.4c-0.1,0.1-0.3,0.1-0.4,0.1
			c-0.2,0-0.3-0.1-0.4-0.2C291.8,246,291.7,245.9,291.7,245.7z M293.5,246.1c0-0.1,0.1-0.3,0.2-0.4c0.1-0.1,0.3-0.1,0.4-0.1
			c0.2,0,0.3,0.1,0.4,0.2c0.1,0.1,0.1,0.3,0.1,0.4c0,0.2-0.1,0.3-0.2,0.4s-0.3,0.1-0.4,0.1c-0.2,0-0.3-0.1-0.4-0.2
			C293.5,246.3,293.5,246.2,293.5,246.1z"/>
		<path d="M296.1,253.8l1-5.9l1.2,0.2c0.6,0.1,1.1,0.2,1.4,0.4c0.4,0.2,0.7,0.4,0.9,0.8c0.5,0.7,0.7,1.5,0.5,2.4
			c-0.2,0.9-0.6,1.6-1.3,2c-0.4,0.2-0.7,0.4-1.1,0.4c-0.3,0.1-0.8,0-1.4-0.1L296.1,253.8z M297.2,253.2l0.4,0.1c0.4,0.1,0.7,0.1,1,0
			c0.3,0,0.5-0.1,0.8-0.3c0.5-0.3,0.8-0.8,0.9-1.5c0.1-0.7,0-1.2-0.4-1.7c-0.3-0.4-0.9-0.7-1.6-0.8l-0.4-0.1L297.2,253.2z"/>
		<path d="M304.3,252.7l1.4,2.9l-1.1-0.2l-1.3-2.7l-0.2,0l-0.4,2.4l-0.9-0.2l1-5.9l1.1,0.2c0.8,0.1,1.3,0.4,1.6,0.7
			c0.3,0.4,0.4,0.9,0.3,1.4c-0.1,0.4-0.3,0.8-0.6,1C305.1,252.5,304.7,252.7,304.3,252.7z M303.3,251.8l0.3,0.1
			c0.8,0.1,1.3-0.1,1.4-0.7c0.1-0.6-0.3-1-1.1-1.1l-0.3-0.1L303.3,251.8z"/>
		<path d="M310.3,254.9l-2.5-0.4l-0.9,1.3l-1-0.2l4.1-5.8l1.7,6.8l-1-0.2L310.3,254.9z M310.1,253.9l-0.5-2.2l-1.3,1.9L310.1,253.9z
			"/>
		<path d="M316.2,251.2l0.9,4.4l2.4-3.8l1,0.2l-3.8,5.9l-1.5-6.8L316.2,251.2z"/>
		<path d="M323.4,257.2l-2.5-0.4L320,258l-1-0.2l4.1-5.8l1.7,6.8l-1-0.2L323.4,257.2z M321.8,251c0-0.1,0.1-0.3,0.2-0.4
			s0.3-0.1,0.4-0.1c0.2,0,0.3,0.1,0.4,0.2c0.1,0.1,0.1,0.3,0.1,0.4c0,0.2-0.1,0.3-0.2,0.4c-0.1,0.1-0.3,0.1-0.4,0.1
			c-0.2,0-0.3-0.1-0.4-0.2C321.8,251.3,321.8,251.2,321.8,251z M323.2,256.3l-0.5-2.2l-1.3,1.9L323.2,256.3z M323.5,251.3
			c0-0.1,0.1-0.3,0.2-0.4s0.3-0.1,0.4-0.1c0.2,0,0.3,0.1,0.4,0.2c0.1,0.1,0.1,0.3,0.1,0.4c0,0.2-0.1,0.3-0.2,0.4
			c-0.1,0.1-0.3,0.1-0.4,0.1c-0.2,0-0.3-0.1-0.4-0.2C323.5,251.6,323.5,251.5,323.5,251.3z"/>
		<path d="M328.9,256.4l2.5,0.4l0,0.2c-0.1,0.4-0.2,0.8-0.4,1.2c-0.2,0.3-0.4,0.6-0.7,0.8c-0.7,0.5-1.4,0.7-2.3,0.6
			c-0.8-0.1-1.5-0.6-2-1.3c-0.5-0.7-0.7-1.5-0.5-2.3c0.2-0.9,0.6-1.5,1.3-2c0.7-0.5,1.5-0.7,2.4-0.5c0.5,0.1,0.9,0.3,1.3,0.5
			c0.4,0.3,0.7,0.6,1,1.1l-0.7,0.5c-0.4-0.7-0.9-1.2-1.6-1.3c-0.6-0.1-1.2,0-1.7,0.4c-0.5,0.4-0.8,0.8-0.9,1.5
			c-0.1,0.7,0,1.2,0.4,1.8c0.4,0.5,0.8,0.8,1.3,0.9c0.4,0.1,0.9,0,1.3-0.2c0.4-0.2,0.7-0.6,0.8-1l-1.5-0.3L328.9,256.4z"/>
		<path d="M336.1,255.6l-2.4-0.4l-0.3,1.4l2.3,0.4l-0.1,0.8l-2.3-0.4l-0.3,2l2.4,0.4l-0.1,0.8l-3.3-0.6l1-5.9l3.3,0.6L336.1,255.6z"
			/>
		<path d="M336.4,260.9l1.1-6.3l3.5,5.3l0.7-4.1l0.9,0.2l-1.1,6.3l-3.5-5.3l-0.7,4.2L336.4,260.9z"/>
	</g>
	<g>
		
			<rect x="296.5" y="12.5" transform="matrix(0.2663 -0.9639 0.9639 0.2663 214.0328 307.1822)" class="st3" width="24.6" height="1"/>
		<g>
			<polygon class="st3" points="315.1,5.4 314.3,5.9 312,1.5 307.8,4.1 307.3,3.2 312.4,0.1 			"/>
		</g>
	</g>
	<g>
		
			<rect x="172.4" y="390.4" transform="matrix(0.2657 -0.9641 0.9641 0.2657 -241.2182 465.2106)" class="st3" width="24.6" height="1"/>
		<g>
			<polygon class="st3" points="178.4,398.5 179.3,398.1 181.6,402.5 185.8,399.9 186.3,400.7 181.2,403.9 			"/>
		</g>
	</g>
</g>
<g id="Layer_2">
	<polygon class="st4" points="16.9,115.2 75.9,159.1 22.8,147.9 15.8,161.3 0,153.2 	"/>
	<polygon class="st4" points="31.5,165.9 107,182.3 181.8,237.6 180.1,245.6 130.1,278.6 139.8,304.2 145.3,343.8 80,388.4 
		48.5,339.1 74.7,316.5 61.2,269.5 29.1,170.9 	"/>
	<polygon class="st4" points="159.9,335.1 180.4,364.5 167.2,381.7 	"/>
	<polygon class="st4" points="149.4,285.3 154.4,298.1 195,357.2 216.9,359.5 238.6,248.5 197.4,241 195,255 	"/>
	<polygon class="st4" points="256.6,251.4 230.1,388.2 445.2,388.2 432.5,271.1 384.4,274.3 	"/>
	<polygon class="st4" points="429,252.9 385.2,255.5 259,233.7 272.9,155.1 357.7,161.5 415.7,131.9 429,150.4 	"/>
	<polygon class="st4" points="298.9,70.1 386.1,92.3 405.8,118.5 354.9,144.5 277.5,139.4 	"/>
	<polygon class="st4" points="213.3,11.2 298.6,11.2 260.5,133.5 213.3,25.9 	"/>
	<polygon class="st5" points="26.6,100.1 44,66 5.3,11.2 197.3,11.2 197.3,29 242.9,133.5 210.6,124.1 185.4,130.4 170.6,130.1 
		158.3,159.4 247.9,194.5 241.3,231.4 191.5,221.8 	"/>
	<polygon points="171.3,152.5 176.2,144.3 187.2,146.6 202.3,134.1 256.5,149.6 250.8,182.8 	"/>
	<g>
		<path class="st6" d="M212.3,149.5c0.2,0.1,0.2,0,0.3-0.1c1.1-1.7,2.3-3.2,3.7-4.6c0.1-0.1,0.1-0.1,0.3-0.2c0,0.4-0.1,0.8-0.1,1.2
			c-0.2,2.4-0.4,4.7-0.5,7.1c-0.2,3.6,0,7.1,0.2,10.7c0,0.5,0,1,0.2,1.5c0.1,0.5,0.4,1,0.7,1.5c0,0.1,0.1,0.2,0.2,0.2
			c0.5,0.1,1,0.2,1.5,0.3c0-0.3,0-0.5,0-0.7c0-2.9,0.2-5.8,0.6-8.6c0.4-2.3,1-4.6,1.9-6.7c0.1-0.1,0.1-0.3,0.2-0.4
			c0.1,0.1,0.1,0.3,0.1,0.4c0,1.2,0.1,2.5,0.2,3.7c0.2,3.2,0.8,6.3,1.5,9.3c0.1,0.6,0.4,1,1,1c0.2,0,0.3,0.1,0.5,0.1
			c0.5,0.1,0.9-0.2,1-0.7c0.1-1.4,0.2-2.8,0.3-4.2c0.4-3.2,1.1-6.3,1.9-9.4c0.1-0.2,0.1-0.4,0.2-0.6c0,0,0.1,0,0.1,0
			c0,0.8,0,1.6,0,2.3c0.2,2.4,0.4,4.7,0.6,7.1c0,0.2,0.1,0.4,0.2,0.5c0.4,0.4,0.8,0.9,1.2,1.3c0.1,0.1,0.3,0.3,0.5,0.3
			c0.6,0,1.2,0.1,1.8,0c0.6,0,1.2-0.3,1.8-0.5c-0.4-0.6-0.4-0.6-1.1-0.5c-0.1,0-0.2,0-0.4,0.1c-1.4,0.2-2.2-0.3-2.5-1.7
			c-0.2-0.9-0.3-1.9-0.4-2.8c-0.2-2.7-0.2-5.4,0-8.1c0-0.1,0-0.2,0-0.3c-0.2-0.5-0.3-1.1-0.5-1.6c0-0.1-0.1-0.2-0.2-0.2
			c-0.4-0.1-0.9-0.2-1.3-0.3c-2.1,4.8-3,9.9-3.6,15.1c-0.1-0.1-0.1-0.1-0.1-0.1c0-0.1-0.1-0.3-0.1-0.4c-0.6-2.7-0.8-5.5-1-8.3
			c-0.1-1.4,0.1-2.8-0.4-4.2c-0.1-0.3-0.2-0.4-0.5-0.5c-0.3-0.1-0.6-0.1-0.8-0.2c-0.2-0.1-0.3,0-0.4,0.2c-1.1,2.2-2.2,4.5-2.9,6.9
			c-0.1,0.4-0.2,0.7-0.4,1.2c0-0.1,0-0.1,0-0.2c-0.1-3.4,0.2-6.7,0.6-10.1c0.1-0.6,0.1-1.2,0.1-1.7c0-0.4-0.1-0.8-0.2-1.2
			c0-0.1-0.1-0.2-0.2-0.3c-0.4-0.2-0.8-0.3-1.2-0.4c-0.1,0-0.3,0-0.3,0.1c-0.7,1-1.4,2-2.1,3c-0.9,1.5-1.7,3-2.2,4.7"/>
		<path class="st6" d="M212.3,149.4c0.5-1.7,1.3-3.2,2.2-4.7c0.6-1,1.4-2,2.1-3c0-0.1,0.2-0.1,0.3-0.1c0.4,0.1,0.8,0.2,1.2,0.4
			c0.1,0,0.2,0.2,0.2,0.3c0.1,0.4,0.2,0.8,0.2,1.2c0,0.6-0.1,1.2-0.1,1.7c-0.4,3.3-0.6,6.7-0.6,10.1c0,0,0,0.1,0,0.2
			c0.1-0.4,0.3-0.8,0.4-1.2c0.8-2.4,1.8-4.7,2.9-6.9c0.1-0.2,0.2-0.2,0.4-0.2c0.3,0.1,0.6,0.2,0.8,0.2c0.3,0.1,0.4,0.2,0.5,0.5
			c0.5,1.4,0.3,2.8,0.4,4.2c0.1,2.8,0.3,5.6,1,8.3c0,0.1,0.1,0.3,0.1,0.4c0,0,0,0,0.1,0.1c0.6-5.2,1.5-10.3,3.6-15.1
			c0.5,0.1,0.9,0.2,1.3,0.3c0.1,0,0.2,0.1,0.2,0.2c0.2,0.5,0.3,1.1,0.5,1.6c0,0.1,0,0.2,0,0.3c-0.1,2.7-0.2,5.4,0,8.1
			c0.1,0.9,0.2,1.9,0.4,2.8c0.3,1.4,1.1,1.9,2.5,1.7c0.1,0,0.2,0,0.4-0.1c0.7-0.1,0.7-0.1,1.1,0.5c-0.6,0.3-1.1,0.5-1.8,0.5
			c-0.6,0-1.2,0-1.8,0c-0.2,0-0.4-0.1-0.5-0.3c-0.4-0.4-0.8-0.8-1.2-1.3c-0.1-0.1-0.2-0.3-0.2-0.5c-0.2-2.4-0.4-4.7-0.6-7.1
			c-0.1-0.8,0-1.6,0-2.3c0,0-0.1,0-0.1,0c-0.1,0.2-0.1,0.4-0.2,0.6c-0.9,3.1-1.6,6.2-1.9,9.4c-0.2,1.4-0.2,2.8-0.3,4.2
			c0,0.5-0.5,0.8-1,0.7c-0.2,0-0.3-0.1-0.5-0.1c-0.7,0-0.9-0.4-1-1c-0.7-3.1-1.2-6.2-1.5-9.3c-0.1-1.2-0.1-2.5-0.2-3.7
			c0-0.1,0-0.2-0.1-0.4c-0.1,0.1-0.1,0.3-0.2,0.4c-1,2.1-1.6,4.4-1.9,6.7c-0.5,2.9-0.6,5.7-0.6,8.6c0,0.2,0,0.5,0,0.7
			c-0.5-0.1-1-0.2-1.5-0.3c-0.1,0-0.2-0.1-0.2-0.2c-0.2-0.5-0.5-1-0.7-1.5c-0.1-0.5-0.1-1-0.2-1.5c-0.2-3.6-0.4-7.1-0.2-10.7
			c0.1-2.4,0.4-4.7,0.5-7.1c0-0.4,0.1-0.7,0.1-1.2c-0.1,0.1-0.2,0.2-0.3,0.2c-1.4,1.4-2.6,2.9-3.7,4.6c-0.1,0.1-0.1,0.3-0.3,0.1
			C212.3,149.5,212.3,149.4,212.3,149.4z"/>
	</g>
</g>
</svg>
